<svg version="1" xmlns="http://www.w3.org/2000/svg" width="682.667" height="682.667" viewBox="0 0 512.000000 512.000000"><path d="M0 256v256h512V0H0v256zM314 89.2c75-.1 82.3.2 100.8 4.9 17.9 4.5 30.2 10.9 40.7 21.4 21.7 21.5 22.1 53.4 1.2 78.6-12.9 15.5-32.5 25.9-63.7 34.1l-4.5 1.1 10.5 1.3c48 5.9 78.7 23.2 90.3 51 5.1 12.1 5.9 28.3 2.2 42.9-3.5 13.9-13.2 28.7-24.7 37.8-11.7 9.3-30.9 17.1-51.4 20.9-11.6 2.1-14 2.2-94.6 2.2l-82.8.1v-8.2l7.6-.6c8.4-.8 14.8-3.2 18-6.8 5.1-5.7 4.9-1.1 5.2-127.9.2-73.8-.1-120.9-.7-124.8-1.8-11.8-6.8-17.3-17-18.6-2.5-.4-6.5-.9-8.8-1.3l-4.3-.5v-4.5c0-4.4.1-4.5 2.8-3.8 1.5.4 34.4.7 73.2.7zm-90.2 4.3l-.3 4-7.5.7c-13.6 1.4-18.8 4.5-21.7 13.1-1.6 4.8-1.8 15.3-2.4 127.2-.4 83-1 124.7-1.8 130.5-4.5 33.6-10.7 47.9-28.1 65-14.8 14.7-31.4 23.4-54 28.3-14.3 3.1-44.9 3.1-57.3-.1-16.5-4.1-27.2-11.4-32.3-21.9-2.3-4.6-2.8-6.9-2.8-13.2 0-6.6.4-8.4 2.9-13 5.7-10.5 15.1-15.3 30-15.5 10.5-.1 15.5 1.2 22.1 5.7 7.2 4.8 9.9 10.8 9.9 21.7 0 6.8-.5 9.3-2.2 12.5-2.9 5.4-8.8 11-14.2 13.4l-4.4 1.9 3.9 1.1c6.5 1.8 18.7 1.3 25.5-.9 7.9-2.7 12.3-5.6 18.1-11.7 5.9-6.4 9.3-13.1 12.3-24.6 4.9-18.9 5-20.7 5-166.2 0-129.2-.1-136.2-1.8-140.7-3.2-8.2-8.4-11.2-21.7-12.6l-7.5-.7-.1-4-.2-4h130.9l-.3 4z"/><path d="M350.7 98.4c-6.1 1.7-10.3 5.7-12.4 12.1-1.5 4.4-1.7 12-2.1 61.2l-.3 56.3h11.8c25.5-.1 38.6-6.4 47.1-22.7 6.9-13.4 9.9-31.7 8.8-53.2-1.4-27.7-8-43.1-21.3-50.3-8.4-4.5-21.9-6-31.6-3.4zM336 292.1c0 32.2.5 60.4 1 64.2 2.3 15.7 7.9 19.6 27.8 19.7 31.1.1 49.9-15.2 56.4-45.8 3-14.1 3-40.4 0-51.5-6.3-23.2-20.3-36-45.2-41.2-3.6-.8-14.1-1.7-23.3-2.1l-16.7-.7v57.4z"/></svg>