<?xml version="1.0" standalone="no"?>
<!DOCTYPE svg PUBLIC "-//W3C//DTD SVG 20010904//EN"
 "http://www.w3.org/TR/2001/REC-SVG-20010904/DTD/svg10.dtd">
<svg version="1.0" xmlns="http://www.w3.org/2000/svg"
 width="512.000000pt" height="512.000000pt" viewBox="0 0 512.000000 512.000000"
 preserveAspectRatio="xMidYMid meet">
<metadata>
Created by potrace 1.11, written by Peter Selinger 2001-2013
</metadata>
<g transform="translate(0.000000,512.000000) scale(0.100000,-0.100000)"
fill="#000000" stroke="none">
<path d="M0 2560 l0 -2560 2560 0 2560 0 0 2560 0 2560 -2560 0 -2560 0 0
-2560z m3140 1668 c750 1 823 -2 1008 -49 179 -45 302 -109 407 -214 217 -215
221 -534 12 -786 -129 -155 -325 -259 -637 -341 l-45 -11 105 -13 c480 -59
787 -232 903 -510 51 -121 59 -283 22 -429 -35 -139 -132 -287 -247 -378 -117
-93 -309 -171 -514 -209 -116 -21 -140 -22 -946 -22 l-828 -1 0 41 0 41 76 6
c84 8 148 32 180 68 51 57 49 11 52 1279 2 738 -1 1209 -7 1248 -18 118 -68
173 -170 186 -25 4 -65 9 -88 13 l-43 5 0 45 c0 44 1 45 28 38 15 -4 344 -7
732 -7z m-902 -43 l-3 -40 -75 -7 c-136 -14 -188 -45 -217 -131 -16 -48 -18
-153 -24 -1272 -4 -830 -10 -1247 -18 -1305 -45 -336 -107 -479 -281 -650
-148 -147 -314 -234 -540 -283 -143 -31 -449 -31 -573 1 -165 41 -272 114
-323 219 -23 46 -28 69 -28 132 0 66 4 84 29 130 57 105 151 153 300 155 105
1 155 -12 221 -57 72 -48 99 -108 99 -217 0 -68 -5 -93 -22 -125 -29 -54 -88
-110 -142 -134 l-44 -19 39 -11 c65 -18 187 -13 255 9 79 27 123 56 181 117
59 64 93 131 123 246 49 189 50 207 50 1662 0 1292 -1 1362 -18 1407 -32 82
-84 112 -217 126 l-75 7 -1 40 -2 40 655 0 654 0 -3 -40z"/>
<path d="M3507 4136 c-61 -17 -103 -57 -124 -121 -15 -44 -17 -120 -21 -612
l-3 -563 118 0 c255 1 386 64 471 227 69 134 99 317 88 532 -14 277 -80 431
-213 503 -84 45 -219 60 -316 34z"/>
<path d="M3360 2199 c0 -322 5 -604 10 -642 23 -157 79 -196 278 -197 311 -1
499 152 564 458 30 141 30 404 0 515 -63 232 -203 360 -452 412 -36 8 -141 17
-233 21 l-167 7 0 -574z"/>
</g>
</svg>
